# xmcd
#
# Track frame offsets:
#	150
#	17345
#	39312
#
# Disc length: 820 seconds
#
# Revision: 2
# Processed by: cddbd v1.5.1PL0 Copyright (c) Steve Scherf et al.
# Submitted via: dBpowerAMP V4.0
#
DISCID=13033203
DTITLE=Thunder - Play That Funky Music CD2
DYEAR=1998
DGENRE=Rock
TTITLE0=Play That Funky Music
TTITLE1=Like A Satellite
TTITLE2=Once In a Lifetime
EXTD=
EXTT0=
EXTT1=
EXTT2=
PLAYORDER=
